<svg width="201" height="200" viewBox="0 0 201 200" fill="none" xmlns="http://www.w3.org/2000/svg">
<path fill-rule="evenodd" clip-rule="evenodd" d="M167.944 67.6114C167.944 104.952 114.695 169.636 100.333 169.636C85.971 169.636 32.7217 104.952 32.7217 67.6114C32.7217 30.2706 62.9923 0 100.333 0C137.674 0 167.944 30.2706 167.944 67.6114ZM134.139 67.9214C134.139 86.5916 119.003 101.727 100.333 101.727C81.6625 101.727 66.5273 86.5916 66.5273 67.9214C66.5273 49.251 81.6625 34.1156 100.333 34.1156C119.003 34.1156 134.139 49.251 134.139 67.9214Z" fill="#4A4A4A"/>
<path d="M163.944 67.6114C163.944 76.1059 160.883 86.5345 155.767 97.6311C150.684 108.657 143.725 120.018 136.286 130.278C128.844 140.542 121.001 149.599 114.204 156.043C110.799 159.271 107.735 161.768 105.18 163.43C102.453 165.205 100.891 165.636 100.333 165.636C99.775 165.636 98.2132 165.205 95.4857 163.43C92.9304 161.768 89.8669 159.271 86.4617 156.043C79.6647 149.599 71.8213 140.543 64.38 130.278C56.9414 120.018 49.9822 108.657 44.8988 97.6311C39.783 86.5345 36.7217 76.1059 36.7217 67.6114C36.7217 32.4797 65.2014 4 100.333 4C135.465 4 163.944 32.4797 163.944 67.6114ZM100.333 105.727C121.212 105.727 138.139 88.8008 138.139 67.9214C138.139 47.0419 121.212 30.1156 100.333 30.1156C79.4533 30.1156 62.5273 47.0419 62.5273 67.9214C62.5273 88.8007 79.4533 105.727 100.333 105.727Z" stroke="white" stroke-opacity="0.2" stroke-width="8"/>
</svg>
