<svg width="188" height="164" viewBox="0 0 188 164" fill="none" xmlns="http://www.w3.org/2000/svg">
<g opacity="0.8" filter="url(#filter0_d_848_10194)">
<path d="M94.0378 76.2434C123.669 76.2434 151.008 72.1959 179.035 60.5883V54.4026C179.035 38.7472 171.245 31.1105 155.437 31.1105H132.756V25.0775C132.756 10.7203 125.195 4 111.373 4H76.6258C63.6434 4 55.3194 10.7203 55.3194 25.0775V31.1105H32.5619C16.8302 31.1105 8.96436 38.7472 8.96436 54.4026V60.5883C36.9912 72.1959 64.3307 76.2434 94.0378 76.2434ZM67.1564 31.1105V24.2374C67.1564 18.4334 70.5165 15.1497 76.4733 15.1497H111.526C117.482 15.1497 120.919 18.4334 120.919 24.2374V31.1105H67.1564ZM32.5619 152H155.437C171.245 152 179.035 144.287 179.035 128.708V73.1128C156.735 81.131 135.582 85.2554 114.352 86.706V92.8916C114.352 98.2373 111.297 101.216 105.875 101.216H82.1246C76.7783 101.216 73.724 98.2373 73.724 92.8916V86.706C52.4174 85.2554 31.2637 81.131 8.96436 73.1128V128.708C8.96436 144.287 16.8302 152 32.5619 152Z" fill="url(#paint0_linear_848_10194)"/>
</g>
<defs>
<filter id="filter0_d_848_10194" x="0.964355" y="0" width="186.071" height="164" filterUnits="userSpaceOnUse" color-interpolation-filters="sRGB">
<feFlood flood-opacity="0" result="BackgroundImageFix"/>
<feColorMatrix in="SourceAlpha" type="matrix" values="0 0 0 0 0 0 0 0 0 0 0 0 0 0 0 0 0 0 127 0" result="hardAlpha"/>
<feOffset dy="4"/>
<feGaussianBlur stdDeviation="4"/>
<feComposite in2="hardAlpha" operator="out"/>
<feColorMatrix type="matrix" values="0 0 0 0 0 0 0 0 0 0 0 0 0 0 0 0 0 0 0.15 0"/>
<feBlend mode="normal" in2="BackgroundImageFix" result="effect1_dropShadow_848_10194"/>
<feBlend mode="normal" in="SourceGraphic" in2="effect1_dropShadow_848_10194" result="shape"/>
</filter>
<linearGradient id="paint0_linear_848_10194" x1="93.9996" y1="4" x2="93.9996" y2="152" gradientUnits="userSpaceOnUse">
<stop stop-color="#FFFBF8"/>
<stop offset="1" stop-color="#EDE4DE"/>
</linearGradient>
</defs>
</svg>
