<svg width="180" height="163" viewBox="0 0 180 163" fill="none" xmlns="http://www.w3.org/2000/svg">
<g opacity="0.8" filter="url(#filter0_d_848_12458)">
<path d="M119.825 149.496H159.387C166.312 149.496 170.7 144.667 170.7 137.118V50.3352C170.7 42.7859 166.312 37.9571 159.387 37.9571H123.185V137.118C123.185 141.674 122.088 145.823 119.825 149.496ZM138.749 72.3706V61.489C138.749 60.0608 139.64 59.1086 141.149 59.1086H152.531C153.971 59.1086 154.93 60.0608 154.93 61.489V72.3706C154.93 73.7989 153.971 74.8192 152.531 74.8192H141.149C139.64 74.8192 138.749 73.7989 138.749 72.3706ZM138.749 99.1671V88.2853C138.749 86.857 139.64 85.9052 141.149 85.9052H152.531C153.971 85.9052 154.93 86.857 154.93 88.2853V99.1671C154.93 100.595 153.971 101.548 152.531 101.548H141.149C139.64 101.548 138.749 100.595 138.749 99.1671ZM138.749 125.964V115.082C138.749 113.654 139.64 112.633 141.149 112.633H152.531C153.971 112.633 154.93 113.654 154.93 115.082V125.964C154.93 127.392 153.971 128.344 152.531 128.344H141.149C139.64 128.344 138.749 127.392 138.749 125.964Z" fill="url(#paint0_linear_848_12458)"/>
<path d="M9.2998 137.122C9.2998 144.671 13.6879 149.5 20.6815 149.5H102.41C109.404 149.5 113.792 144.671 113.792 137.122V16.878C113.792 9.3288 109.404 4.5 102.41 4.5H20.6815C13.6879 4.5 9.2998 9.3288 9.2998 16.878V137.122ZM37.8226 138.55V116.447C37.8226 113.318 39.8795 111.278 43.0334 111.278H80.6751C83.8293 111.278 85.8859 113.318 85.8859 116.447V138.55H37.8226ZM35.5599 41.022V27.8279C35.5599 26.1276 36.657 24.9034 38.3711 24.9034H52.0839C53.798 24.9034 55.0322 26.1276 55.0322 27.8279V41.022C55.0322 42.7904 53.798 43.9465 52.0839 43.9465H38.3711C36.657 43.9465 35.5599 42.7904 35.5599 41.022ZM68.6763 41.022V27.8279C68.6763 26.1276 69.7733 24.9034 71.556 24.9034H85.2007C86.9144 24.9034 88.149 26.1276 88.149 27.8279V41.022C88.149 42.7904 86.9144 43.9465 85.2007 43.9465H71.556C69.7733 43.9465 68.6763 42.7904 68.6763 41.022ZM35.5599 68.7704V55.5764C35.5599 53.8762 36.657 52.6519 38.3711 52.6519H52.0839C53.798 52.6519 55.0322 53.8762 55.0322 55.5764V68.7704C55.0322 70.5388 53.798 71.6949 52.0839 71.6949H38.3711C36.657 71.6949 35.5599 70.5388 35.5599 68.7704ZM68.6763 68.7704V55.5764C68.6763 53.8762 69.7733 52.6519 71.556 52.6519H85.2007C86.9144 52.6519 88.149 53.8762 88.149 55.5764V68.7704C88.149 70.5388 86.9144 71.6949 85.2007 71.6949H71.556C69.7733 71.6949 68.6763 70.5388 68.6763 68.7704ZM35.5599 96.5193V83.3253C35.5599 81.5569 36.657 80.4003 38.3711 80.4003H52.0839C53.798 80.4003 55.0322 81.5569 55.0322 83.3253V96.5193C55.0322 98.2197 53.798 99.4437 52.0839 99.4437H38.3711C36.657 99.4437 35.5599 98.2197 35.5599 96.5193ZM68.6763 96.5193V83.3253C68.6763 81.5569 69.7733 80.4003 71.556 80.4003H85.2007C86.9144 80.4003 88.149 81.5569 88.149 83.3253V96.5193C88.149 98.2197 86.9144 99.4437 85.2007 99.4437H71.556C69.7733 99.4437 68.6763 98.2197 68.6763 96.5193Z" fill="url(#paint1_linear_848_12458)"/>
</g>
<defs>
<filter id="filter0_d_848_12458" x="0.95235" y="0.326272" width="178.095" height="161.695" filterUnits="userSpaceOnUse" color-interpolation-filters="sRGB">
<feFlood flood-opacity="0" result="BackgroundImageFix"/>
<feColorMatrix in="SourceAlpha" type="matrix" values="0 0 0 0 0 0 0 0 0 0 0 0 0 0 0 0 0 0 127 0" result="hardAlpha"/>
<feOffset dy="4.17373"/>
<feGaussianBlur stdDeviation="4.17373"/>
<feComposite in2="hardAlpha" operator="out"/>
<feColorMatrix type="matrix" values="0 0 0 0 0 0 0 0 0 0 0 0 0 0 0 0 0 0 0.15 0"/>
<feBlend mode="normal" in2="BackgroundImageFix" result="effect1_dropShadow_848_12458"/>
<feBlend mode="normal" in="SourceGraphic" in2="effect1_dropShadow_848_12458" result="shape"/>
</filter>
<linearGradient id="paint0_linear_848_12458" x1="89.9998" y1="4.5" x2="89.9998" y2="149.5" gradientUnits="userSpaceOnUse">
<stop stop-color="#FFFBF8"/>
<stop offset="1" stop-color="#EDE4DE"/>
</linearGradient>
<linearGradient id="paint1_linear_848_12458" x1="89.9998" y1="4.5" x2="89.9998" y2="149.5" gradientUnits="userSpaceOnUse">
<stop stop-color="#FFFBF8"/>
<stop offset="1" stop-color="#EDE4DE"/>
</linearGradient>
</defs>
</svg>
