<svg width="150" height="176" viewBox="0 0 150 176" fill="none" xmlns="http://www.w3.org/2000/svg">
<g opacity="0.8" filter="url(#filter0_d_848_6440)">
<path d="M141.978 67.0731C141.978 83.2609 135.865 98.0389 125.318 107.241V140.02C125.318 155.201 110.068 164 85.2783 164C61.7651 164 46.9183 155.873 45.9105 141.767L45.9778 141.296L38.991 141.968C28.0407 143.244 19.4416 137.132 19.4416 125.042V112.145C12.2533 110.264 8.021 104.554 8.021 97.6358C8.021 94.0082 9.16306 90.0457 11.4472 86.015L19.6431 71.2377C19.4416 69.4912 19.3744 67.7448 19.3744 65.6625C19.3744 28.6515 43.8951 4 80.5082 4C117.256 4 141.978 29.2561 141.978 67.0731ZM90.5182 76.6784C90.5182 80.5743 93.2052 83.3283 97.7738 83.3283H98.9157C100.058 89.7093 104.156 94.0756 109.261 94.0756C116.651 94.0756 121.958 85.6793 121.958 73.9918C121.958 73.0515 121.958 71.9765 121.891 70.969C119.137 72.1781 115.912 72.7154 112.217 72.5139C110.403 72.3124 109.127 70.9018 109.127 69.2225C109.127 67.409 110.672 65.864 112.352 65.9984C119.943 66.5358 124.847 62.3712 124.847 55.5869C124.847 49.4072 121.757 44.3023 116.785 41.4139C114.904 60.5576 90.5182 63.1772 90.5182 76.6784ZM70.4985 31.9429C70.4985 33.9581 69.1549 35.2343 67.2738 35.2343C65.2584 35.2343 63.8476 33.6894 63.982 31.7414C64.0492 28.9203 64.8554 26.9723 65.6615 25.1587C64.4522 25.0244 63.3774 24.89 62.1681 24.89C53.905 24.89 47.5229 29.995 47.5229 36.712C47.5229 40.9438 50.546 44.1679 54.4425 44.1679C56.3234 44.1679 57.8686 45.6457 57.8686 47.4593C57.8686 49.2058 56.2563 50.7507 54.4425 50.7507C48.7993 50.7507 44.4326 48.0639 42.4172 43.8321C40.1331 47.1907 38.8566 51.2208 38.8566 55.2511C38.8566 66.6701 46.1793 75.4025 57.4655 75.4025C65.6615 75.4025 71.439 70.0286 71.439 62.5055C71.439 59.8859 70.5657 57.6692 69.1549 56.2587C68.0128 55.184 67.6097 54.042 67.6097 53.1016C67.6097 51.4224 69.0205 50.1461 70.7672 50.1461C71.5733 50.1461 72.5139 50.3476 73.2528 51.0865C73.656 51.4224 74.059 52.0941 74.1934 52.4971C79.6353 51.7582 82.3223 48.6012 82.3223 43.4291C82.3223 41.6155 83.7999 40.1378 85.5466 40.1378C87.2932 40.1378 88.7716 41.6827 88.7716 43.4291C88.8383 51.3552 84.8078 56.393 77.2839 58.0723C77.6871 59.55 77.8212 61.0949 77.8212 62.6398C77.8212 69.4241 74.5293 74.8646 68.8862 77.8876C72.0436 79.5666 75.7385 80.4402 79.7694 80.4402C81.516 80.4402 83.4642 80.2386 85.345 79.903C85.0093 78.8953 84.8078 77.8876 84.8078 76.8126C84.8078 59.147 110.941 56.1243 110.941 40.2049C110.941 32.4131 104.828 26.2334 97.1691 26.2334C94.4146 26.2334 93.6084 26.3006 92.8695 26.5021C90.0477 23.3451 85.883 21.4643 81.9866 21.4643C75.3355 21.4643 70.5657 25.6289 70.4985 31.9429Z" fill="url(#paint0_linear_848_6440)"/>
</g>
<defs>
<filter id="filter0_d_848_6440" x="0.0209961" y="0" width="149.958" height="176" filterUnits="userSpaceOnUse" color-interpolation-filters="sRGB">
<feFlood flood-opacity="0" result="BackgroundImageFix"/>
<feColorMatrix in="SourceAlpha" type="matrix" values="0 0 0 0 0 0 0 0 0 0 0 0 0 0 0 0 0 0 127 0" result="hardAlpha"/>
<feOffset dy="4"/>
<feGaussianBlur stdDeviation="4"/>
<feComposite in2="hardAlpha" operator="out"/>
<feColorMatrix type="matrix" values="0 0 0 0 0 0 0 0 0 0 0 0 0 0 0 0 0 0 0.15 0"/>
<feBlend mode="normal" in2="BackgroundImageFix" result="effect1_dropShadow_848_6440"/>
<feBlend mode="normal" in="SourceGraphic" in2="effect1_dropShadow_848_6440" result="shape"/>
</filter>
<linearGradient id="paint0_linear_848_6440" x1="74.9997" y1="4" x2="74.9997" y2="164" gradientUnits="userSpaceOnUse">
<stop stop-color="#FFFBF8"/>
<stop offset="1" stop-color="#EDE4DE"/>
</linearGradient>
</defs>
</svg>
