<svg width="351" height="112" viewBox="0 0 351 112" fill="none" xmlns="http://www.w3.org/2000/svg">
<path fill-rule="evenodd" clip-rule="evenodd" d="M34.917 81.9089C40.3599 83.6214 46.4739 84.4131 51.7545 80.704C51.7759 80.6861 51.7868 80.6768 51.7868 80.6768C52.9022 78.7056 50.2264 79.2747 45.8934 80.1961C42.8158 80.8505 38.9021 81.6828 34.917 81.9089Z" fill="#53727A"/>
<path fill-rule="evenodd" clip-rule="evenodd" d="M34.917 81.9089C40.3599 83.6214 46.4739 84.4131 51.7545 80.704C51.7759 80.6861 51.7868 80.6768 51.7868 80.6768C52.9022 78.7056 50.2264 79.2747 45.8934 80.1961C42.8158 80.8505 38.9021 81.6828 34.917 81.9089Z" fill="url(#paint0_linear_1407_13033)"/>
<path d="M51.787 80.5868C51.787 80.5868 43.5222 87.6341 34.0216 87.9658C24.521 88.2976 15.9113 85.4692 15.7934 82.094C15.6755 78.7188 18.3908 77.6227 22.016 77.4961C27.1414 77.3171 41.1601 88.092 51.787 80.5868Z" fill="url(#paint1_linear_1407_13033)"/>
<path fill-rule="evenodd" clip-rule="evenodd" d="M60.5799 62.8859C60.6073 63.0541 61.7113 70.1817 52.0757 69.8452C47.3748 69.681 41.9343 67.3673 36.2993 64.9708C35.6811 64.708 35.0606 64.4441 34.4385 64.1819C34.3229 62.8624 34.4054 61.9879 34.4054 61.9879C45.4394 68.7401 52.262 65.3275 56.3122 63.3017C58.4146 62.2501 59.7699 61.5722 60.5794 62.8835C60.5794 62.8835 60.5796 62.8843 60.5799 62.8859C60.5799 62.8859 60.5799 62.8859 60.5799 62.8859ZM60.817 65.9764C60.7264 70.1006 58.966 76.8445 48.3398 76.4734C48.2179 76.4691 48.0963 76.4643 47.9751 76.4587C48.0956 76.4647 48.2171 76.4699 48.3398 76.4742C58.9666 76.8453 60.7266 70.1006 60.817 65.9764Z" fill="#53727A"/>
<path fill-rule="evenodd" clip-rule="evenodd" d="M60.5799 62.8859C60.6073 63.0541 61.7113 70.1817 52.0757 69.8452C47.3748 69.681 41.9343 67.3673 36.2993 64.9708C35.6811 64.708 35.0606 64.4441 34.4385 64.1819C34.3229 62.8624 34.4054 61.9879 34.4054 61.9879C45.4394 68.7401 52.262 65.3275 56.3122 63.3017C58.4146 62.2501 59.7699 61.5722 60.5794 62.8835C60.5794 62.8835 60.5796 62.8843 60.5799 62.8859C60.5799 62.8859 60.5799 62.8859 60.5799 62.8859ZM60.817 65.9764C60.7264 70.1006 58.966 76.8445 48.3398 76.4734C48.2179 76.4691 48.0963 76.4643 47.9751 76.4587C48.0956 76.4647 48.2171 76.4699 48.3398 76.4742C58.9666 76.8453 60.7266 70.1006 60.817 65.9764Z" fill="url(#paint2_linear_1407_13033)"/>
<path fill-rule="evenodd" clip-rule="evenodd" d="M34.857 73.3851C31.799 72.1207 29.0384 70.6424 26.5183 69.2929C22.4988 67.1405 19.0914 65.3158 16.0662 65.2102C8.6907 64.9526 0.903693 69.3116 5.46191 74.9779C5.13638 74.6589 4.84412 74.3354 4.58386 74.0085C4.84327 74.3354 5.13562 74.6595 5.46226 74.9796C7.89001 77.3588 11.5923 76.3049 16.1656 75.0031C21.5811 73.4616 28.218 71.5724 35.4064 74.6241C35.4064 74.6241 35.2231 74.1556 34.857 73.3851Z" fill="#53727A"/>
<path fill-rule="evenodd" clip-rule="evenodd" d="M34.857 73.3851C31.799 72.1207 29.0384 70.6424 26.5183 69.2929C22.4988 67.1405 19.0914 65.3158 16.0662 65.2102C8.6907 64.9526 0.903693 69.3116 5.46191 74.9779C5.13638 74.6589 4.84412 74.3354 4.58386 74.0085C4.84327 74.3354 5.13562 74.6595 5.46226 74.9796C7.89001 77.3588 11.5923 76.3049 16.1656 75.0031C21.5811 73.4616 28.218 71.5724 35.4064 74.6241C35.4064 74.6241 35.2231 74.1556 34.857 73.3851Z" fill="url(#paint3_linear_1407_13033)"/>
<path d="M52.0763 69.8405C61.8269 70.181 60.58 62.8782 60.58 62.8782C62.0563 67.5411 58.4586 78.1826 48.9987 79.12C39.5388 80.0574 23.4424 65.4612 16.0669 65.2037C8.69143 64.9461 1.63399 69.8405 5.46264 74.9714C-1.55643 68.0928 1.48008 51.4663 16.0668 51.9757C30.6535 52.4851 42.3256 69.5 52.0763 69.8405Z" fill="url(#paint4_linear_1407_13033)"/>
<path fill-rule="evenodd" clip-rule="evenodd" d="M60.8064 49.4141C60.8053 53.2275 55.6705 54.3089 53.9195 53.9778C50.1762 53.2698 47.5098 50.0428 44.5673 46.1876C45.5447 47.1273 46.8999 48.2356 48.6834 49.2889C50.8223 50.5522 53.1488 49.7923 55.2792 49.0964C57.4665 48.3819 59.4473 47.7349 60.8064 49.4141ZM61.0195 49.6854C61.7588 50.6639 62.2428 51.6724 62.5039 52.6755C62.2953 51.732 61.8139 50.7278 61.0195 49.6854Z" fill="#53727A"/>
<path fill-rule="evenodd" clip-rule="evenodd" d="M60.8064 49.4141C60.8053 53.2275 55.6705 54.3089 53.9195 53.9778C50.1762 53.2698 47.5098 50.0428 44.5673 46.1876C45.5447 47.1273 46.8999 48.2356 48.6834 49.2889C50.8223 50.5522 53.1488 49.7923 55.2792 49.0964C57.4665 48.3819 59.4473 47.7349 60.8064 49.4141ZM61.0195 49.6854C61.7588 50.6639 62.2428 51.6724 62.5039 52.6755C62.2953 51.732 61.8139 50.7278 61.0195 49.6854Z" fill="url(#paint5_linear_1407_13033)"/>
<path fill-rule="evenodd" clip-rule="evenodd" d="M40.9921 55.7269C40.2448 54.9644 39.4856 54.1703 38.7116 53.3605C33.3646 47.7672 27.3066 41.4299 19.544 39.6377C5.65494 36.4312 1.67694 43.0814 1.8703 47.2349C1.8707 47.2364 1.87109 47.238 1.87148 47.2395C3.32329 52.8635 7.87344 51.9149 14.0305 50.6312C21.5316 49.0674 31.4177 47.0064 40.9921 55.7269Z" fill="#53727A"/>
<path fill-rule="evenodd" clip-rule="evenodd" d="M40.9921 55.7269C40.2448 54.9644 39.4856 54.1703 38.7116 53.3605C33.3646 47.7672 27.3066 41.4299 19.544 39.6377C5.65494 36.4312 1.67694 43.0814 1.8703 47.2349C1.8707 47.2364 1.87109 47.238 1.87148 47.2395C3.32329 52.8635 7.87344 51.9149 14.0305 50.6312C21.5316 49.0674 31.4177 47.0064 40.9921 55.7269Z" fill="url(#paint6_linear_1407_13033)"/>
<path d="M53.9203 53.9796C55.6715 54.3108 60.8072 53.2291 60.8072 49.4148C66.3006 56.2031 59.2118 64.6118 50.543 62.6104C41.8742 60.6091 33.4408 42.8401 19.5467 39.6324C5.65257 36.4247 1.67675 43.0809 1.87322 47.2341C0.111283 40.4087 9.21607 27.1057 25.6134 31.1481C42.0107 35.1905 44.695 52.2349 53.9203 53.9796Z" fill="url(#paint7_linear_1407_13033)"/>
<path fill-rule="evenodd" clip-rule="evenodd" d="M25.4737 25.0787C25.4729 25.0793 25.472 25.0799 25.4711 25.0805C23.0427 26.7022 23.0049 29.6461 29.2208 31.0811C34.2149 32.2341 40.3105 33.6414 43.9188 37.0046C40.3052 32.0323 36.0061 26.8066 30.328 25.1736C30.328 25.1736 27.547 24.4395 25.4737 25.0787Z" fill="#53727A"/>
<path fill-rule="evenodd" clip-rule="evenodd" d="M25.4737 25.0787C25.4729 25.0793 25.472 25.0799 25.4711 25.0805C23.0427 26.7022 23.0049 29.6461 29.2208 31.0811C34.2149 32.2341 40.3105 33.6414 43.9188 37.0046C40.3052 32.0323 36.0061 26.8066 30.328 25.1736C30.328 25.1736 27.547 24.4395 25.4737 25.0787Z" fill="url(#paint8_linear_1407_13033)"/>
<path d="M59.288 44.362C58.5845 47.409 56.3813 48.0557 53.3343 47.3522C47.4841 46.0016 41.6449 28.4783 30.329 25.224C30.329 25.224 27.546 24.4893 25.4725 25.1298C27.9009 23.508 34.4919 23.8743 38.1482 24.7185C54.9674 28.6015 59.9914 41.3151 59.288 44.362Z" fill="url(#paint9_linear_1407_13033)"/>
<path d="M96.8323 56.36V69H91.7123V41H96.8323V54.28L105.912 41H111.232V41.64L101.712 55.12L106.112 61.76C108.032 64.32 108.632 65.08 110.272 65.08C110.792 65.08 111.672 65 112.752 64.24C113.352 65.48 113.952 66.6 114.592 67.84C113.112 69 111.072 69.44 109.472 69.44C105.672 69.44 103.272 66.64 101.672 63.92L96.8323 56.36ZM132.819 48.76H137.739V69H132.819V65.96C131.379 68.2 128.899 69.44 125.899 69.44C119.899 69.44 115.979 64.68 115.979 58.8C115.979 53.08 119.739 48.32 125.939 48.32C128.659 48.32 131.179 49.4 132.819 51.76V48.76ZM120.939 58.84C120.939 62.48 123.219 65.32 126.899 65.32C130.259 65.32 132.939 63.04 132.939 59.04C132.939 55.08 130.419 52.44 126.779 52.44C123.059 52.44 120.939 55.36 120.939 58.84ZM148.994 48.76V53.24C149.634 49.8 152.354 48.32 154.514 48.32C155.194 48.32 155.594 48.44 156.194 48.6V53.44C155.434 53.16 154.514 53.04 153.874 53.04C152.074 53.04 149.074 54.04 149.074 59.64V69H144.154V48.76H148.994ZM165.145 48.76V53.24C165.785 49.8 168.505 48.32 170.665 48.32C171.345 48.32 171.745 48.44 172.345 48.6V53.44C171.585 53.16 170.665 53.04 170.025 53.04C168.225 53.04 165.225 54.04 165.225 59.64V69H160.305V48.76H165.145ZM181.457 69H176.537V48.76H181.457V69ZM175.817 42.76C175.817 41 177.137 39.64 179.017 39.64C180.897 39.64 182.297 41 182.297 42.76C182.297 44.52 180.897 45.84 179.017 45.84C177.137 45.84 175.817 44.52 175.817 42.76ZM204.521 62.8L207.321 65.56C204.601 68.6 201.321 69.44 198.161 69.44C190.921 69.44 186.521 64.72 186.521 58.96C186.521 53 191.201 48.32 197.601 48.32C203.041 48.32 208.241 51.76 208.241 59.56H191.441C191.441 62.76 194.081 65.28 198.401 65.28C200.961 65.28 202.801 64.36 204.521 62.8ZM197.601 52.24C195.441 52.24 192.761 53.12 191.681 56.24H203.201C202.441 53.12 199.721 52.24 197.601 52.24ZM217.78 48.76V53.24C218.42 49.8 221.14 48.32 223.3 48.32C223.98 48.32 224.38 48.44 224.98 48.6V53.44C224.22 53.16 223.3 53.04 222.66 53.04C220.86 53.04 217.86 54.04 217.86 59.64V69H212.94V48.76H217.78ZM245.301 62.8L248.101 65.56C245.381 68.6 242.101 69.44 238.941 69.44C231.701 69.44 227.301 64.72 227.301 58.96C227.301 53 231.981 48.32 238.381 48.32C243.821 48.32 249.021 51.76 249.021 59.56H232.221C232.221 62.76 234.861 65.28 239.181 65.28C241.741 65.28 243.581 64.36 245.301 62.8ZM238.381 52.24C236.221 52.24 233.541 53.12 232.461 56.24H243.981C243.221 53.12 240.501 52.24 238.381 52.24ZM254.845 52.52H251.845V48.76H254.845V47.52C254.845 40.92 259.645 39.68 264.685 39.68C267.725 39.68 271.045 40.44 273.925 42.32V69H269.005V44.76C267.365 43.88 265.205 43.76 264.365 43.76C262.165 43.76 259.845 44.24 259.845 47.36V48.76H264.765V52.52H259.845V69H254.845V52.52ZM289.258 62.64L294.538 48.76H300.058L287.498 78.16H282.658L286.778 67.8L278.178 48.76H283.738L289.258 62.64ZM310.267 43.36V48.76H316.307V52.52H310.267V63.12C310.267 64.36 310.787 65.32 312.227 65.32C313.467 65.32 314.227 64.48 314.227 63.24C314.227 62.8 314.147 62 313.947 61.56H317.987C318.347 62.32 318.427 63.48 318.427 63.84C318.427 66.8 316.387 69.44 312.027 69.44C308.667 69.44 305.347 68 305.347 62.44V52.52H302.187V48.76H305.587L306.467 43.36H310.267Z" fill="#4A4A4A"/>
<defs>
<linearGradient id="paint0_linear_1407_13033" x1="50.628" y1="80.5168" x2="42.9694" y2="82.0959" gradientUnits="userSpaceOnUse">
<stop stop-opacity="0.2"/>
<stop offset="1" stop-opacity="0.5"/>
</linearGradient>
<linearGradient id="paint1_linear_1407_13033" x1="33.6418" y1="77.0901" x2="34.0216" y2="87.9658" gradientUnits="userSpaceOnUse">
<stop stop-color="#7E9AA3"/>
<stop offset="1" stop-color="#516F76"/>
</linearGradient>
<linearGradient id="paint2_linear_1407_13033" x1="33.4156" y1="69.3957" x2="60.9559" y2="64.9957" gradientUnits="userSpaceOnUse">
<stop stop-opacity="0.5"/>
<stop offset="1" stop-opacity="0.2"/>
</linearGradient>
<linearGradient id="paint3_linear_1407_13033" x1="3.94562" y1="77.774" x2="25.2849" y2="74.8346" gradientUnits="userSpaceOnUse">
<stop stop-opacity="0.2"/>
<stop offset="1" stop-opacity="0.5"/>
</linearGradient>
<linearGradient id="paint4_linear_1407_13033" x1="31.8233" y1="52.5259" x2="30.9138" y2="78.5695" gradientUnits="userSpaceOnUse">
<stop stop-color="#7E9AA3"/>
<stop offset="1" stop-color="#516F76"/>
</linearGradient>
<linearGradient id="paint5_linear_1407_13033" x1="45.7926" y1="51.9772" x2="61.1734" y2="47.9591" gradientUnits="userSpaceOnUse">
<stop stop-opacity="0.5"/>
<stop offset="1" stop-opacity="0.2"/>
</linearGradient>
<linearGradient id="paint6_linear_1407_13033" x1="19.3947" y1="46.8357" x2="13.5489" y2="56.5886" gradientUnits="userSpaceOnUse">
<stop stop-opacity="0.5"/>
<stop offset="1" stop-opacity="0.2"/>
</linearGradient>
<linearGradient id="paint7_linear_1407_13033" x1="35.9633" y1="33.5344" x2="30.328" y2="57.9434" gradientUnits="userSpaceOnUse">
<stop stop-color="#7E9AA3"/>
<stop offset="1" stop-color="#516F76"/>
</linearGradient>
<linearGradient id="paint8_linear_1407_13033" x1="38.0279" y1="31.3127" x2="23.2531" y2="32.159" gradientUnits="userSpaceOnUse">
<stop stop-opacity="0.5"/>
<stop offset="1" stop-opacity="0.2"/>
</linearGradient>
<linearGradient id="paint9_linear_1407_13033" x1="44.364" y1="26.1535" x2="40.1714" y2="44.3133" gradientUnits="userSpaceOnUse">
<stop stop-color="#7E9AA3"/>
<stop offset="1" stop-color="#516F76"/>
</linearGradient>
</defs>
</svg>
