<svg width="188" height="164" viewBox="0 0 188 164" fill="none" xmlns="http://www.w3.org/2000/svg">
<g opacity="0.8" filter="url(#filter0_d_1690_14689)">
<path d="M94.0381 76.2434C123.657 76.2434 150.985 72.1959 179 60.5883V54.4026C179 38.7472 171.213 31.1105 155.412 31.1105H132.74V25.0775C132.74 10.7203 125.182 4 111.366 4H76.6333C63.6563 4 55.3358 10.7203 55.3358 25.0775V31.1105H32.5877C16.8626 31.1105 9 38.7472 9 54.4026V60.5883C37.0152 72.1959 64.3433 76.2434 94.0381 76.2434ZM67.1679 31.1105V24.2374C67.1679 18.4334 70.5266 15.1497 76.4809 15.1497H111.519C117.473 15.1497 120.908 18.4334 120.908 24.2374V31.1105H67.1679ZM32.5877 152H155.412C171.213 152 179 144.287 179 128.708V73.1128C156.709 81.131 135.565 85.2554 114.344 86.706V92.8916C114.344 98.2373 111.29 101.216 105.87 101.216H82.1299C76.7858 101.216 73.7327 98.2373 73.7327 92.8916V86.706C52.435 85.2554 31.2901 81.131 9 73.1128V128.708C9 144.287 16.8626 152 32.5877 152Z" fill="url(#paint0_linear_1690_14689)"/>
</g>
<defs>
<filter id="filter0_d_1690_14689" x="1" y="0" width="186" height="164" filterUnits="userSpaceOnUse" color-interpolation-filters="sRGB">
<feFlood flood-opacity="0" result="BackgroundImageFix"/>
<feColorMatrix in="SourceAlpha" type="matrix" values="0 0 0 0 0 0 0 0 0 0 0 0 0 0 0 0 0 0 127 0" result="hardAlpha"/>
<feOffset dy="4"/>
<feGaussianBlur stdDeviation="4"/>
<feComposite in2="hardAlpha" operator="out"/>
<feColorMatrix type="matrix" values="0 0 0 0 0 0 0 0 0 0 0 0 0 0 0 0 0 0 0.15 0"/>
<feBlend mode="normal" in2="BackgroundImageFix" result="effect1_dropShadow_1690_14689"/>
<feBlend mode="normal" in="SourceGraphic" in2="effect1_dropShadow_1690_14689" result="shape"/>
</filter>
<linearGradient id="paint0_linear_1690_14689" x1="93.9999" y1="4" x2="93.9999" y2="152" gradientUnits="userSpaceOnUse">
<stop stop-color="#FFFBF8"/>
<stop offset="1" stop-color="#EDE4DE"/>
</linearGradient>
</defs>
</svg>
